<svg width="160" height="208" viewBox="0 0 160 208" fill="none" xmlns="http://www.w3.org/2000/svg">
  <rect width="160" height="208" rx="36" fill="url(#bg)"/>
  <ellipse cx="80" cy="170" rx="44" ry="16" fill="#0B1320" fill-opacity="0.34"/>
  <path d="M40 184C44 146 58 126 80 126C102 126 116 146 120 184H40Z" fill="#274469"/>
  <path d="M60 118H100L108 146H52L60 118Z" fill="#E8EEF8"/>
  <rect x="62" y="114" width="36" height="22" rx="10" fill="#EFC3A2"/>
  <ellipse cx="80" cy="82" rx="34" ry="38" fill="#F1C4A5"/>
  <path d="M46 86C46 52 60 36 80 36C101 36 114 52 114 86V96H46V86Z" fill="#2B3553"/>
  <path d="M56 52C63 39 79 30 98 34C112 37 120 49 122 66C113 56 99 51 86 51L56 52Z" fill="#2B3553"/>
  <circle cx="68" cy="82" r="4" fill="#243B5E"/>
  <circle cx="92" cy="82" r="4" fill="#243B5E"/>
  <path d="M68 98C74 103 86 103 92 98" stroke="#9F5E53" stroke-width="4" stroke-linecap="round"/>
  <rect x="56" y="74" width="18" height="14" rx="4" stroke="#DDE8F8" stroke-width="3"/>
  <rect x="86" y="74" width="18" height="14" rx="4" stroke="#DDE8F8" stroke-width="3"/>
  <path d="M74 81H86" stroke="#DDE8F8" stroke-width="3" stroke-linecap="round"/>
  <defs>
    <linearGradient id="bg" x1="18" y1="14" x2="144" y2="198" gradientUnits="userSpaceOnUse">
      <stop stop-color="#26405D"/>
      <stop offset="1" stop-color="#111D30"/>
    </linearGradient>
  </defs>
</svg>
